# xmcd
#
# Track frame offsets: 
#        225
#        21513
#        28569
#        70136
#        94982
#        111961
#        142874
#        183929
#        202059
#        231236
#        255611
#        281392
#        292332
#        309672
#
# Disc length: 4535 seconds
#
# Revision: 0
# Processed by: cddbd v1.5.2PL0 Copyright (c) Steve Scherf et al.
# Submitted via: ExactAudioCopyFreeDBPlugin 1.0
#
DISCID=d511b40e
DTITLE=Miko &Molle - Sideways
DYEAR=2017
DGENRE=Blues
TTITLE0=Kein Krieg
TTITLE1=Dinge passieren ...
TTITLE2=Sibbentrup Blues
TTITLE3=Nur noch 2 Lichtjahre
TTITLE4=Werwolfsfrau
TTITLE5=One on One
TTITLE6=Vom Mond geschaukelt
TTITLE7=Wie Kiesel im Meer
TTITLE8=I don't care anymore
TTITLE9=Einsame Flamme
TTITLE10=Bildertraum
TTITLE11=Hey Du
TTITLE12=Vom Mond geschaukelt
TTITLE13=Melody of Divine
EXTD=
EXTT0=
EXTT1=
EXTT2=
EXTT3=
EXTT4=
EXTT5=
EXTT6=
EXTT7=
EXTT8=
EXTT9=
EXTT10=
EXTT11=
EXTT12=
EXTT13=
PLAYORDER=
